<svg width="50" height="50" fill="none" xmlns="http://www.w3.org/2000/svg"><path fill-rule="evenodd" clip-rule="evenodd" d="M25 49c13.255 0 24-10.745 24-24S38.255 1 25 1 1 11.745 1 25s10.745 24 24 24z" fill="#fff" stroke="#D8D8D8"/><mask id="a" maskUnits="userSpaceOnUse" x="0" y="0" width="50" height="50"><path fill-rule="evenodd" clip-rule="evenodd" d="M25 49c13.255 0 24-10.745 24-24S38.255 1 25 1 1 11.745 1 25s10.745 24 24 24z" fill="#fff" stroke="#fff"/></mask><g mask="url(#a)"><path d="M29.89 22.095l1.117 1.934 3.619-.679 4.323-4.706-2.11-3.65h-9.055l-3.155 3.45-4.033-4.39h-.168L15.51 14 12 17.34l4.776 5.17 2.355.739.779-.738.495.534-8.049 8.807 2.14 3.658 8.116-.063 3.223-2.772-2.12-3.617h-.128l1.161-1.283 2.998 3.262-1.604 1.474 3.209 3.042h4.448l3.511-3.286-8.375-9.125.954-1.047zm-1.311.65L26.516 20.5l2.437-2.696.874 1.5-.808.89-.132.149.098.167.63 1.091-1.036 1.145zm1.617-3.86l-.726-1.264h1.867l-1.141 1.264zm.07 2.795l-.635-1.102 2.788-.517 1.65 2.852-2.79.524-1.014-1.757zm4.278.975l-1.654-2.852 3.743-4.083 1.653 2.853-3.742 4.082zm1.538-7.13l-3.663 3.987-2.482.465.535-.602 1.672-1.852.39-.437h-3.652l-.08.087-2.65 2.93-1.162-1.263 3.035-3.316h8.057zm-20.36-.99l4.043.044-2.686 2.558-4.042-.044 2.685-2.558zm3.359 8.022l-2.446-2.688h.847l2.068 2.248-.47.44zm2.882 2.175l-4.387 4.861h5.245l-2.387 1.975-7.13.047 7.47-8.167 1.19 1.284zm-8.81 7.42l7.226-.049 1.672 2.813-7.245.057-1.653-2.822zm9.433 2.616l-1.708-2.873 2.613-2.165 1.663 2.831-2.568 2.207zm-9.593-17.14l4.073.044 16.028 17.346h-3.517l-2.362-2.232h2.865L17.72 19.334h-2.288l2.772 3.059-1.132-.357-4.079-4.408zm7.448-2.952l16.13 17.563-2.853 2.672L17.56 17.417l2.881-2.741zm7.678 16.759l.743.816h-1.634l.891-.816zm-5.8-6.293l2.069 2.237-1.519 1.685h-4.095l3.544-3.922z" fill="#000" stroke="#000" stroke-width=".3"/></g></svg>